<svg xmlns="http://www.w3.org/2000/svg" version="1.1" xmlns:xlink="http://www.w3.org/1999/xlink" xmlns:svgjs="http://svgjs.com/svgjs" width="32.235" height="32.23"><svg version="1.1" xmlns="http://www.w3.org/2000/svg" xmlns:xlink="http://www.w3.org/1999/xlink" x="0px" y="0px" viewBox="0 0 32.235 32.23" style="enable-background:new 0 0 32.235 32.23;" xml:space="preserve">
<g id="SvgjsG1001">
	<path style="fill:#66CCFF;" d="M13.913,23.322c0.391,0.39,1.024,0.39,1.414,0c0.391-0.391,0.391-1.024,0-1.414l-5-5
		c-0.391-0.39-1.024-0.39-1.414,0c-0.391,0.391-0.391,1.024,0,1.414L13.913,23.322z"></path>
	<path style="fill:#66CCFF;" d="M3.913,19.322l9,9l2,2c0.391,0.39,1.024,0.39,1.414,0c0.39-0.391,0.39-1.024,0-1.414l-2-2l-9-9l-2-2
		c-0.391-0.391-1.024-0.391-1.414,0c-0.391,0.391-0.391,1.024,0,1.414L3.913,19.322z"></path>
	<path style="fill:#66CCFF;" d="M11.327,31.322c0.391-0.391,0.391-1.024,0-1.414l-9-9c-0.391-0.39-1.024-0.39-1.414,0
		c-0.391,0.391-0.391,1.024,0,1.414l9,9C10.303,31.713,10.937,31.713,11.327,31.322z"></path>
	<path style="fill:#66CCFF;" d="M17.913,5.322l9,9l2,2c0.39,0.39,1.024,0.39,1.414,0c0.39-0.391,0.39-1.024,0-1.414l-2-2l-9-9l-2-2
		c-0.391-0.39-1.024-0.39-1.414,0c-0.391,0.391-0.391,1.024,0,1.414L17.913,5.322z"></path>
	<path style="fill:#66CCFF;" d="M23.327,15.322c0.39-0.391,0.39-1.024,0-1.414l-5-5c-0.391-0.391-1.024-0.391-1.414,0
		c-0.391,0.391-0.391,1.024,0,1.414l5,5C22.303,15.713,22.937,15.713,23.327,15.322z"></path>
	<path style="fill:#66CCFF;" d="M29.913,11.322c0.39,0.391,1.024,0.391,1.414,0c0.39-0.391,0.39-1.024,0-1.414l-9-9
		c-0.391-0.391-1.024-0.391-1.414,0c-0.391,0.391-0.391,1.024,0,1.414L29.913,11.322z"></path>
	<polygon style="fill:#4E5F80;" points="29.241,2.994 29.241,2.994 29.241,2.994 	"></polygon>
	<path style="fill:#4E5F80;" d="M28.948,7.529l0.293-0.293c0.584-0.583,0.88-1.357,0.879-2.121c0.001-0.765-0.295-1.538-0.879-2.121
		c-0.583-0.584-1.357-0.88-2.121-0.879c-0.765-0.001-1.538,0.295-2.121,0.879l-0.293,0.293l-2.379-2.379
		C21.719,0.3,20.913-0.001,20.12,0c-0.793-0.001-1.599,0.3-2.207,0.908l0,0C17.63,1.19,17.421,1.517,17.27,1.861
		C16.669,1.289,15.89,0.999,15.12,1c-0.793-0.001-1.599,0.3-2.207,0.908l0,0C12.298,2.52,11.998,3.33,12,4.115
		C11.998,4.9,12.298,5.71,12.913,6.322l0,0l4.393,4.393l-6.586,6.586l-4.393-4.393C5.719,12.3,4.913,11.999,4.12,12
		c-0.793-0.001-1.599,0.3-2.207,0.908l0,0C1.298,13.52,0.998,14.33,1,15.115c-0.003,0.763,0.288,1.546,0.868,2.152
		c-0.346,0.15-0.673,0.359-0.955,0.641l0,0C0.298,18.52-0.002,19.33,0,20.115c-0.002,0.785,0.298,1.595,0.913,2.207l0,0l2.379,2.379
		l-0.313,0.313l0,0h0c-0.584,0.583-0.88,1.357-0.879,2.121c-0.001,0.764,0.295,1.538,0.879,2.121
		c0.104,0.104,0.301,0.18,0.501,0.229c0.516,0.423,1.085,0.65,1.736,0.649c0.764,0.001,1.48-0.295,2.063-0.879H7.249l0.297-0.301
		l2.366,2.366l0,0c0.608,0.608,1.414,0.909,2.207,0.908c0.793,0.001,1.599-0.3,2.207-0.908c0.282-0.282,0.491-0.609,0.641-0.955
		c0.601,0.574,1.381,0.864,2.152,0.863c0.793,0.001,1.599-0.3,2.207-0.908c0.608-0.608,0.909-1.414,0.908-2.207
		c0.001-0.793-0.3-1.599-0.908-2.207h0l-4.373-4.373l6.586-6.586l4.373,4.373c0.608,0.608,1.414,0.909,2.207,0.908
		c0.793,0.001,1.599-0.3,2.207-0.908c0.608-0.608,0.909-1.414,0.908-2.207c0.001-0.771-0.289-1.55-0.863-2.152
		c0.346-0.15,0.673-0.359,0.955-0.641c0.608-0.608,0.909-1.414,0.908-2.207c0.001-0.793-0.3-1.599-0.908-2.207L28.948,7.529z
		 M4.148,27.608c-0.056-0.035-0.121-0.058-0.231-0.058h0.231V27.608z M5.806,27.843c-0.198,0.197-0.448,0.292-0.707,0.293
		c-0.197-0.001-0.38-0.074-0.547-0.187l0.071-0.106c-0.197-0.198-0.407-0.448-0.409-0.707c0.001-0.259,0.038-0.509,0.235-0.707
		l-0.029,0l-0.015-0.014l0.293-0.293l1.414,1.414L5.806,27.843z M29.913,12.908c-0.212,0.212-0.496,0.321-0.793,0.322
		c-0.297-0.001-0.581-0.11-0.793-0.322c-0.003-0.003-0.006-0.003-0.009-0.006c-0.092-0.09-0.199-0.162-0.317-0.211
		c-0.244-0.1-0.518-0.1-0.762,0c-0.121,0.05-0.233,0.123-0.326,0.217c-0.093,0.093-0.167,0.205-0.216,0.326
		c-0.1,0.244-0.1,0.518,0,0.762c0.05,0.121,0.123,0.233,0.217,0.326c0,0,0,0,0,0l2,2c0.212,0.212,0.321,0.496,0.322,0.793
		c-0.001,0.297-0.11,0.581-0.322,0.793c-0.212,0.212-0.496,0.321-0.793,0.322c-0.297-0.001-0.581-0.11-0.793-0.322l-5.08-5.08
		c-0.391-0.391-1.024-0.391-1.414,0l-8,8c-0.186,0.186-0.293,0.444-0.293,0.707s0.107,0.521,0.293,0.707l5.08,5.08l0,0
		c0.212,0.212,0.321,0.496,0.322,0.793c-0.001,0.297-0.11,0.581-0.322,0.793c-0.212,0.212-0.496,0.321-0.793,0.322
		c-0.297-0.001-0.581-0.11-0.793-0.322l-2-2c-0.093-0.094-0.205-0.167-0.326-0.217c-0.121-0.05-0.25-0.076-0.379-0.076
		c0,0-0.001,0-0.002,0c-0.13,0-0.259,0.026-0.381,0.076c-0.121,0.05-0.233,0.123-0.326,0.217c-0.093,0.093-0.167,0.205-0.216,0.326
		c-0.05,0.122-0.076,0.251-0.076,0.381c0,0.001,0,0.001,0,0.002c0,0.129,0.026,0.258,0.076,0.379
		c0.049,0.118,0.121,0.226,0.211,0.318c0.003,0.003,0.003,0.006,0.006,0.009l0,0c0.212,0.212,0.321,0.496,0.322,0.793
		c-0.001,0.297-0.11,0.581-0.322,0.793c-0.212,0.212-0.496,0.321-0.793,0.322c-0.297-0.001-0.581-0.11-0.793-0.322l-9-9
		C2.102,20.68,2.003,20.41,2,20.115c0.003-0.295,0.102-0.565,0.327-0.793C2.539,19.11,2.824,19.001,3.12,19
		c0.297,0.001,0.581,0.11,0.793,0.322l0,0c0.003,0.003,0.006,0.003,0.009,0.006c0.092,0.09,0.199,0.162,0.317,0.211
		c0.118,0.049,0.243,0.072,0.369,0.074c0.004,0,0.008,0.002,0.012,0.002c0.003,0,0.006-0.002,0.009-0.002
		c0.127-0.001,0.253-0.026,0.372-0.075c0.121-0.05,0.233-0.123,0.326-0.217c0.094-0.094,0.167-0.205,0.217-0.326
		c0.1-0.244,0.1-0.518,0-0.762c-0.05-0.121-0.123-0.233-0.217-0.326l-2-2C3.102,15.68,3.003,15.41,3,15.115
		c0.003-0.295,0.102-0.565,0.327-0.793C3.539,14.11,3.824,14.001,4.12,14c0.297,0.001,0.581,0.11,0.793,0.322l5.1,5.1
		c0.186,0.186,0.444,0.293,0.707,0.293c0.263,0,0.521-0.107,0.707-0.293l8-8c0.186-0.186,0.293-0.444,0.293-0.707
		c0-0.263-0.107-0.521-0.293-0.707l-5.1-5.1C14.102,4.68,14.003,4.41,14,4.115c0.003-0.295,0.102-0.565,0.327-0.793
		C14.539,3.11,14.824,3.001,15.12,3c0.297,0.001,0.581,0.11,0.793,0.322l2,2c0.006,0.006,0.013,0.007,0.019,0.013
		c0.09,0.086,0.193,0.157,0.307,0.204c0.121,0.05,0.25,0.076,0.379,0.076c0.001,0,0.001,0,0.001,0c0.13,0,0.26-0.026,0.382-0.076
		c0.121-0.05,0.233-0.123,0.326-0.217c0.093-0.093,0.167-0.205,0.217-0.326c0.05-0.122,0.076-0.251,0.076-0.381
		c0-0.001,0-0.001,0-0.002c0-0.129-0.026-0.258-0.076-0.379c-0.047-0.115-0.119-0.219-0.205-0.31
		c-0.005-0.005-0.006-0.012-0.011-0.017C19.102,3.68,19.003,3.41,19,3.115c0.003-0.295,0.102-0.565,0.327-0.793
		C19.539,2.11,19.824,2.001,20.12,2c0.297,0.001,0.581,0.11,0.793,0.322l3.086,3.086c0.186,0.186,0.444,0.293,0.707,0.293
		c0.263,0,0.521-0.107,0.707-0.293l1-1c0.198-0.197,0.448-0.292,0.707-0.293c0.259,0.001,0.509,0.096,0.707,0.293l0,0
		c0.197,0.198,0.292,0.448,0.293,0.707c-0.001,0.259-0.096,0.509-0.293,0.707l-1,1c-0.186,0.186-0.293,0.444-0.293,0.707
		c0,0.263,0.107,0.521,0.293,0.707l3.086,3.086c0.212,0.212,0.321,0.496,0.322,0.793C30.234,12.412,30.125,12.696,29.913,12.908z"></path>
</g>
<g id="SvgjsG1000">
</g>
</svg><style>@media (prefers-color-scheme: light) { :root { filter: contrast(1) brightness(1); } }
</style></svg>